<svg width="96" height="96" viewBox="0 0 96 96" fill="none" xmlns="http://www.w3.org/2000/svg">
<path d="M0 0H96V96H0V0Z" fill="white"/>
<path d="M42.3105 15C46.1657 15 49.4902 15.5867 52.2838 16.76C55.0775 17.9054 57.2286 19.5676 58.7371 21.7467C60.2457 23.8978 61 26.5098 61 29.5829C61 33.1308 59.9663 36.2038 57.899 38.8019C55.8597 41.3721 53.2057 43.6489 49.9371 45.6324L58.2762 53.5524C59.254 52.0438 60.12 50.3676 60.8743 48.5238C61.6286 46.6521 62.2152 44.6965 62.6343 42.6571H79.6476C78.7536 46.7917 77.3708 50.7867 75.499 54.6419C73.6552 58.4692 71.6857 61.654 69.5905 64.1962L83 77.0609H61.7962L57.6476 72.7867C56.1111 73.7365 54.5746 74.6025 53.0381 75.3848C51.5295 76.167 49.6997 76.7816 47.5486 77.2286C45.3975 77.6755 42.6178 77.899 39.2095 77.899C34.4324 77.899 30.3816 77.1029 27.0571 75.5105C23.7606 73.8902 21.2603 71.739 19.5562 69.0571C17.8521 66.3473 17 63.3441 17 60.0476C17 57.6171 17.433 55.3682 18.299 53.3009C19.193 51.2057 20.4781 49.32 22.1543 47.6438C23.8584 45.9676 25.9397 44.5009 28.3981 43.2438C27.2527 41.9308 26.261 40.5759 25.4229 39.179C24.6127 37.7822 23.9841 36.3016 23.5371 34.7371C23.1181 33.1448 22.9086 31.4267 22.9086 29.5829C22.9086 26.7613 23.6349 24.261 25.0876 22.0819C26.5683 19.8749 28.7473 18.1429 31.6248 16.8857C34.5302 15.6286 38.0921 15 42.3105 15ZM37.3238 52.2533C36.5416 52.84 35.8851 53.4825 35.3543 54.1809C34.8514 54.8794 34.4743 55.6197 34.2229 56.4019C33.9994 57.1841 33.8876 58.0082 33.8876 58.8743C33.8876 60.6343 34.5162 62.073 35.7733 63.1905C37.0584 64.3079 38.7206 64.8667 40.76 64.8667C42.3524 64.8667 43.7492 64.6571 44.9505 64.2381C46.1517 63.819 47.0736 63.3441 47.7162 62.8133L37.3238 52.2533ZM42.059 25.7276C40.8857 25.7276 39.8521 26.0768 38.9581 26.7752C38.0921 27.4457 37.659 28.5632 37.659 30.1276C37.659 31.3568 38.0222 32.5302 38.7486 33.6476C39.5029 34.7371 40.3689 35.7289 41.3467 36.6229C42.939 35.7289 44.1543 34.6533 44.9924 33.3962C45.8305 32.139 46.2495 30.8679 46.2495 29.5829C46.2495 28.214 45.8444 27.2362 45.0343 26.6495C44.2521 26.0349 43.2603 25.7276 42.059 25.7276Z" fill="black"/>
</svg>
